<svg xmlns="http://www.w3.org/2000/svg" viewBox="0 0 716.84 432.31"><path d="M150.08,445h-101S-2,346.89,22,217.25C48.62,73.36,181.17,30.62,253.19,19.53c59.59-9.19,105.86-10.69,123.74,26s31.7,47.33,58.15,46.8S585,28.39,684.46,135.82c53.37,57.63,71.68,189.56,5.29,309.13Z" transform="translate(-15.61 -14.01)" fill="#d5f3d6"/><path d="M361.19,203c-7.77-.45-26-1.22-41.83.11a11.11,11.11,0,0,1-12.06-11.25,16.92,16.92,0,0,1,3.52-9.37c9.62-13.66,26.33-.62,26.17,6.32,0,0,3.38-10.44,13.64-8.62s6.64,17,6.64,17,3.31-.7,5.61.87A2.71,2.71,0,0,1,361.19,203Z" transform="translate(-15.61 -14.01)" fill="#f5fff5"/><path d="M537.19,164.24c10.22-.7,45.25-2.71,69.27.48a3.33,3.33,0,0,0,2.85-5.6c-1.27-1.32-3.44-2.38-7-2.58,0,0,.9-22.39-16-23.62-19.41-1.41-19.31,20.58-19.31,20.58S558,145.27,551.8,156c0,0-11.08-6.18-16.44,5.63A1.87,1.87,0,0,0,537.19,164.24Z" transform="translate(-15.61 -14.01)" fill="#f5fff5"/><path d="M260,101.92c-12.31-.84-54.52-3.26-83.46.58a4,4,0,0,1-3.44-6.75c1.54-1.59,4.14-2.86,8.5-3.1,0,0-1.09-27,19.3-28.46,23.39-1.7,23.27,24.8,23.27,24.8s10.77-9.92,18.23,3c0,0,13.35-7.44,19.81,6.78A2.26,2.26,0,0,1,260,101.92Z" transform="translate(-15.61 -14.01)" fill="#f5fff5"/><path d="M719.55,446.32H24.15a1.41,1.41,0,1,1,0-2.74h695.4a1.41,1.41,0,1,1,0,2.74Z" transform="translate(-15.61 -14.01)" fill="#1e2b5f"/><path d="M370.87,443.64a2.7,2.7,0,0,0,2.69-2.7V373.48c0-5.1-12.76-5.1-20.41-.64s-31.52,1.76-28.7-23.59c3.23-29,30.58-20.15,37.63-12.12,4.15,4.72,11.48,1.27,11.48-10.21V270.3a2.7,2.7,0,0,0-2.69-2.69H324.45c-19.77,0-36.35.64-28.06,12.76s3.83,35.07-16.58,35.07S254.3,297,260.67,283.56s3.83-15.95-15.94-15.95H190.66A2.69,2.69,0,0,0,188,270.3v56c0,13.39,9.57,13.39,23.6,7s25.51,1.91,25.51,17.86-14.67,26.79-28.7,19.13S188,367.1,188,374.76v66.18a2.69,2.69,0,0,0,2.69,2.7Z" transform="translate(-15.61 -14.01)" fill="#91deaa"/><path d="M240.07,396.09a.37.37,0,0,1-.29-.14l-9.65-11.81a.37.37,0,1,1,.57-.47l9.65,11.81a.37.37,0,0,1,0,.52A.35.35,0,0,1,240.07,396.09Z" transform="translate(-15.61 -14.01)" fill="#1e2b5f"/><path d="M244.78,396.09a.38.38,0,0,1-.29-.14l-8.83-10.83a.37.37,0,1,1,.57-.46l8.84,10.82a.38.38,0,0,1-.29.61Z" transform="translate(-15.61 -14.01)" fill="#1e2b5f"/><path d="M340.5,424.86a.38.38,0,0,1-.29-.14l-9.65-11.81a.37.37,0,1,1,.58-.47l9.65,11.81a.37.37,0,0,1-.06.52A.33.33,0,0,1,340.5,424.86Z" transform="translate(-15.61 -14.01)" fill="#1e2b5f"/><path d="M345.22,424.86a.37.37,0,0,1-.29-.14l-8.84-10.83a.38.38,0,0,1,.06-.52.37.37,0,0,1,.52.05l8.83,10.83a.37.37,0,0,1-.05.52A.35.35,0,0,1,345.22,424.86Z" transform="translate(-15.61 -14.01)" fill="#1e2b5f"/><path d="M322.16,294.8a.38.38,0,0,1-.29-.14l-9.65-11.81a.37.37,0,0,1,.58-.47l9.65,11.82a.38.38,0,0,1-.05.52A.43.43,0,0,1,322.16,294.8Z" transform="translate(-15.61 -14.01)" fill="#1e2b5f"/><path d="M326.88,294.8a.37.37,0,0,1-.29-.14l-8.83-10.82a.37.37,0,1,1,.57-.47l8.83,10.83a.37.37,0,0,1-.05.52A.4.4,0,0,1,326.88,294.8Z" transform="translate(-15.61 -14.01)" fill="#1e2b5f"/><path d="M197,337.82c3.75,0,8.58-1.36,14.76-4.18a21.85,21.85,0,0,1,9-2.12c9.54,0,16,7.89,16,19.64v.32a.37.37,0,0,0,.37.38h0a.38.38,0,0,0,.38-.37v-.33c0-12.2-6.71-20.39-16.71-20.39a22.51,22.51,0,0,0-9.33,2.19c-6.09,2.76-10.81,4.11-14.45,4.11-5.8,0-8.61-3.53-8.61-10.78V270.68A2.68,2.68,0,0,1,191,268h55.33a.37.37,0,0,0,.38-.34h0a.37.37,0,0,0-.37-.41H191a3.46,3.46,0,0,0-3.45,3.45v55.61C187.59,333.94,190.74,337.82,197,337.82Z" transform="translate(-15.61 -14.01)" fill="#1e2b5f"/><path d="M145.75,174.52s-6.07,17.33-8.77,16.89-3,21.43,6.39,12.85c3.29-3,8.57-26.43,3.83-32.79S145.75,174.52,145.75,174.52Z" transform="translate(-15.61 -14.01)" fill="#ffd19d"/><path d="M147.75,170.27s-1.43,17.37-4.32,19.85a4.77,4.77,0,0,1-4.08.82l-2.07,9.93-11.56-4.09,6.07-28.18s5-6.16,4.92-5.88S147.75,170.27,147.75,170.27Z" transform="translate(-15.61 -14.01)" fill="#f39d75"/><path d="M140.9,183.46a.09.09,0,0,1-.05-.1.12.12,0,0,1,.08-.12c.53,0,1-.83,1.17-1.09a3.26,3.26,0,0,1-.83-2.3,4.85,4.85,0,0,1,1-2.53h.11v.16a4.47,4.47,0,0,0-.9,2.35,3,3,0,0,0,.84,2.21l0,.06,0,.08s-.64,1.22-1.35,1.28Z" transform="translate(-15.61 -14.01)" fill="#ed7163"/><path d="M138.62,194.31l.73-3.37s-5.63-1.56-8.65-4.51C130.7,186.43,134.47,192,138.62,194.31Z" transform="translate(-15.61 -14.01)" fill="#ed7163"/><path d="M135.71,176.4a.24.24,0,0,1-.14-.09.22.22,0,0,1,.06-.31s3.4-2.25,5.49.33a.22.22,0,1,1-.34.27c-1.83-2.26-4.78-.32-4.9-.23A.25.25,0,0,1,135.71,176.4Z" transform="translate(-15.61 -14.01)" fill="#ffd19d"/><path d="M143.3,177.54a.21.21,0,0,1-.15-.11.22.22,0,0,1,.09-.3c.09,0,2.37-1.28,3.36,0a.23.23,0,0,1,0,.31.21.21,0,0,1-.3-.05c-.77-1-2.78.09-2.8.1A.2.2,0,0,1,143.3,177.54Z" transform="translate(-15.61 -14.01)" fill="#ffd19d"/><path d="M139.76,178.53a.61.61,0,1,1-.47-.73A.62.62,0,0,1,139.76,178.53Z" transform="translate(-15.61 -14.01)" fill="#1e2b5f"/><path d="M145.4,179.74a.6.6,0,0,1-.73.47.61.61,0,1,1,.26-1.2A.62.62,0,0,1,145.4,179.74Z" transform="translate(-15.61 -14.01)" fill="#1e2b5f"/><path d="M136.47,182.21c.06,0,3.56,2.53,3.56,2.53a2.23,2.23,0,0,1-3.56-2.53Z" transform="translate(-15.61 -14.01)" fill="#f5fff5"/><path d="M142.52,169.41l-2-4.66s4,4,3.55,4A7.44,7.44,0,0,0,142.52,169.41Z" transform="translate(-15.61 -14.01)" fill="#f39d75"/><path d="M134.31,165.53s-.61,6.45,14.1,11.17c0,0,5.63-8.47-4.56-14.07s-13.1,2.52-12.86,2.49S134.31,165.53,134.31,165.53Z" transform="translate(-15.61 -14.01)" fill="#ffd19d"/><path d="M135.77,169.56a58.79,58.79,0,0,0-5.69,6.16s-1,27.4-10.8,23.6l-1.8-.44c-8.91-2.18,1.73-20.1,4.24-30.33,1.58-6.4,10.88-11.13,15.06-6.05S135.77,169.56,135.77,169.56Z" transform="translate(-15.61 -14.01)" fill="#ffd19d"/><polygon points="115.54 424.18 98.1 424.51 97.74 409.43 115.1 407.34 115.54 424.18" fill="#f39d75"/><path d="M118.49,443.64l22.5,0a3.37,3.37,0,0,0,.49-.09c2.12-.64,1.42-1.95,1.42-1.95l-10.78-6.52-.2-.95c-.33-1.53-2.27-2.07-3.72-1l-3.77,2.69s-9.54,1.42-10.86-1.24l.08,6.9S112.93,443.62,118.49,443.64Z" transform="translate(-15.61 -14.01)" fill="#1e3877"/><polygon points="69.38 424.18 51.94 424.51 51.58 409.43 68.94 407.34 69.38 424.18" fill="#f39d75"/><path d="M72.33,443.64l22.5,0a3.37,3.37,0,0,0,.49-.09c2.12-.64,1.42-1.95,1.42-1.95L86,435.06l-.2-.95c-.33-1.53-2.27-2.07-3.72-1l-3.77,2.69s-9.54,1.42-10.86-1.24l.08,6.9S66.77,443.62,72.33,443.64Z" transform="translate(-15.61 -14.01)" fill="#1e3877"/><path d="M85.66,248.51S112.5,201,123,196.37s15.12,4.17,16.51,9.26c.87,3.18,2.78,17.51,3.76,28,.59,6.25.55,11.33.55,11.33s-22.56,7.51-26.42,7.51l2.41,10.15s-11.46,7.33-14.7,9.18C105.1,271.8,85.49,263.78,85.66,248.51Z" transform="translate(-15.61 -14.01)" fill="#1e3877"/><path d="M94.92,344.45s9.25,39.8,9.56,46.89S106.33,430,106.33,430s16.66,2.9,31.16,0c0,0,0-58.11-6.17-85.57S119,284.88,119,284.88Z" transform="translate(-15.61 -14.01)" fill="#2da981"/><path d="M118,431.09a.27.27,0,0,1-.24-.14c0-.05,0-.05,0-.38l0-1a.26.26,0,0,1,.26-.26.24.24,0,0,1,.26.25l0,1.28a.27.27,0,0,1-.15.25Zm-.2-7.56a.26.26,0,0,1-.26-.26c0-1.83-.11-3.94-.17-6.26a.27.27,0,0,1,.25-.27.25.25,0,0,1,.27.25c.06,2.32.12,4.43.17,6.27a.27.27,0,0,1-.25.27ZM117.46,411a.26.26,0,0,1-.26-.25c-.06-2-.12-4.11-.18-6.26a.25.25,0,0,1,.25-.27.27.27,0,0,1,.27.25c.06,2.16.12,4.26.18,6.26a.25.25,0,0,1-.25.27Zm-.38-12.52a.26.26,0,0,1-.26-.25q-.09-3.11-.2-6.26a.26.26,0,0,1,.25-.27.27.27,0,0,1,.27.25q.1,3.15.2,6.26a.26.26,0,0,1-.25.27ZM116.66,386a.25.25,0,0,1-.25-.25c-.08-2.11-.16-4.21-.23-6.26a.26.26,0,0,1,.25-.27.26.26,0,0,1,.27.25c.07,2.05.15,4.15.23,6.26a.27.27,0,0,1-.26.27Zm-.47-12.52a.26.26,0,0,1-.26-.25c-.09-2.18-.19-4.28-.28-6.26a.26.26,0,1,1,.52,0c.09,2,.19,4.08.28,6.26a.27.27,0,0,1-.25.27Zm-.6-12.51a.26.26,0,0,1-.26-.25c-.15-2.56-.29-4.67-.43-6.25a.27.27,0,0,1,.24-.28.26.26,0,0,1,.28.24c.14,1.58.28,3.69.43,6.26a.27.27,0,0,1-.25.28ZM114,348.51a.26.26,0,0,1-.25-.2c-.43-1.54-1-3.56-1.72-6a.26.26,0,0,1,.18-.32.26.26,0,0,1,.32.18c.72,2.45,1.3,4.48,1.72,6a.26.26,0,0,1-.18.32Zm-3.49-12a.28.28,0,0,1-.25-.19c-.6-2-1.21-4.05-1.8-6a.27.27,0,0,1,.18-.33.26.26,0,0,1,.32.18c.59,1.94,1.2,4,1.8,6a.27.27,0,0,1-.17.33Zm-3.62-12a.25.25,0,0,1-.24-.18c-1.09-3.57-1.84-6-1.84-6A.26.26,0,0,1,105,318a.27.27,0,0,1,.33.17s.75,2.44,1.83,6a.25.25,0,0,1-.17.32Z" transform="translate(-15.61 -14.01)" fill="#1e2b5f"/><path d="M132.84,196.12s.33-3.78-6.65-3.84c-12.2-.09-29.5,23.14-44.77,54.61-2,4.18-4.07,8.21-6,12.13-2.47,15.56,24.22,27.25,42.89,35.9,14.5-25.74,14.48-54.12,14.48-54.12Z" transform="translate(-15.61 -14.01)" fill="#1e3877"/><path d="M75.47,259C63.22,284.55,55,311.3,62.22,425.59c0,0,21.59,4.54,32.39,4.43,0,0,9.25-109.36,23.75-135.1a99.88,99.88,0,0,0,4.92-10c-7.45-.83-24.73-7.32-31-12.18C87.35,268.94,79,262,75.47,259Z" transform="translate(-15.61 -14.01)" fill="#54c295"/><path d="M94.61,430.32A105.76,105.76,0,0,1,76,428.42a.3.3,0,1,1,.12-.58,106.07,106.07,0,0,0,18.19,1.88l3.76-36.5c.05-.37,5-35.72,7.11-50.44,2.32-16,8.39-37.7,10.22-42.22.6-1.48,2.32-5,4-8.36,1.39-2.83,2.83-5.75,3.6-7.47a.3.3,0,0,1,.4-.15.29.29,0,0,1,.15.39c-.78,1.73-2.22,4.66-3.62,7.5-1.66,3.37-3.37,6.85-4,8.31-1.83,4.51-7.88,26.17-10.18,42.08-2.14,14.73-7.07,50.07-7.12,50.43l-3.81,37Z" transform="translate(-15.61 -14.01)" fill="#1e2b5f"/><path d="M123.29,285.18h0c-4.71-.39-21.2-5.18-31.77-12.67a.3.3,0,0,1,.35-.49c10.48,7.43,26.81,12.18,31.47,12.57a.29.29,0,0,1,.27.32A.29.29,0,0,1,123.29,285.18Z" transform="translate(-15.61 -14.01)" fill="#1e2b5f"/><path d="M178,275.32l-32.1-12.76-4.64-27.2-7.67,4.76-11,4.72-6.3,1.56s4.64,27.91,11.45,34.1,45.11,8,45.11,8Z" transform="translate(-15.61 -14.01)" fill="#f2926f"/><path d="M196.31,279.54c1.38-1.58-.09-3.4-.09-3.4a7,7,0,0,0,.11-2,1.06,1.06,0,0,0-1.42-.9c-1.88.71-4.76,1.93-7.32,3.05v-4.57c-1,.27-1.7,1.34-3.46,3.91a2,2,0,0,1-2,.74L173.59,274,165,288s4.77.51,6.58.51l13,0c4,0,8.69-.68,10.58-2.44s1.38-3.2,1.38-3.2A2.53,2.53,0,0,0,196.31,279.54Z" transform="translate(-15.61 -14.01)" fill="#f2926f"/><path d="M192.12,278.44a.27.27,0,0,1-.25-.17.26.26,0,0,1,.16-.34,27.38,27.38,0,0,0,3.95-2.08.26.26,0,0,1,.29.44,29.1,29.1,0,0,1-4.06,2.13Z" transform="translate(-15.61 -14.01)" fill="#ed7163"/><path d="M192.35,281.43a.24.24,0,0,1-.23-.18.23.23,0,0,1,.17-.27,14.2,14.2,0,0,0,3.9-1.64.22.22,0,0,1,.24.38,14,14,0,0,1-4,1.7Z" transform="translate(-15.61 -14.01)" fill="#ed7163"/><path d="M193,284.85a.26.26,0,0,1-.07-.51,12.16,12.16,0,0,0,3.45-1.62.27.27,0,0,1,.37.06.27.27,0,0,1-.06.36,12.43,12.43,0,0,1-3.62,1.7Z" transform="translate(-15.61 -14.01)" fill="#ed7163"/><path d="M117.38,243.39a24.79,24.79,0,0,0-1.54,3.32l1.41,6.42s11.93-3.34,14.18-4.13,11.83-3.95,11.83-3.95l-2-11.12Z" transform="translate(-15.61 -14.01)" fill="#1e3877"/><path d="M116.46,253.52l0-.26c0-.13-2.78-13.95-2.32-24a.25.25,0,0,1,.27-.24.25.25,0,0,1,.25.27c-.42,9.27,1.89,21.72,2.26,23.66,7.26-1.53,24.83-7.49,26.7-8.13.68-8.59-4.28-38.79-4.33-39.1-1.65-5.48-4.23-8.87-7.65-10-4.9-1.69-9.92,1.8-10,1.84a.27.27,0,0,1-.36-.06.26.26,0,0,1,.06-.37c.21-.15,5.28-3.68,10.43-1.91,3.6,1.24,6.29,4.74,8,10.42.06.34,5.1,31,4.33,39.43v.17l-.16.06c-.2.06-19.69,6.73-27.18,8.26Z" transform="translate(-15.61 -14.01)" fill="#1e2b5f"/><path d="M114.4,235.62a.24.24,0,0,1-.23-.15l-2.44-5.25a.24.24,0,0,1,.12-.34.26.26,0,0,1,.35.12l2.44,5.25a.27.27,0,0,1-.13.35Z" transform="translate(-15.61 -14.01)" fill="#1e2b5f"/><path d="M71.53,418.58a.26.26,0,0,1-.26-.26c0-1.79,0-3.81,0-6a.26.26,0,0,1,.25-.27h0a.26.26,0,0,1,.26.26c0,2.22,0,4.23,0,6a.26.26,0,0,1-.26.26Zm-.08-12.05a.26.26,0,0,1-.26-.26q0-2.88,0-6a.25.25,0,0,1,.26-.26h0a.26.26,0,0,1,.26.26q0,3.13,0,6a.26.26,0,0,1-.26.26Zm0-12a.26.26,0,0,1-.26-.26v-6a.27.27,0,0,1,.27-.26h0a.26.26,0,0,1,.26.26v6a.27.27,0,0,1-.26.27Zm0-12.06h0a.25.25,0,0,1-.26-.26c0-2,0-4,0-6a.26.26,0,0,1,.26-.25.25.25,0,0,1,.26.26q0,3,0,6A.26.26,0,0,1,71.43,382.43Zm.06-12.05h0a.26.26,0,0,1-.26-.26l.06-6a.26.26,0,0,1,.26-.26h0a.26.26,0,0,1,.26.26q0,3-.06,6A.26.26,0,0,1,71.49,370.38Zm.14-12.06h0a.25.25,0,0,1-.25-.26c0-2,.06-4,.09-6a.26.26,0,0,1,.52,0l-.09,6A.26.26,0,0,1,71.63,358.32Zm.21-12.05h0a.26.26,0,0,1-.26-.26q.08-3.06.15-6a.26.26,0,0,1,.52,0q-.07,3-.15,6A.25.25,0,0,1,71.84,346.27Zm.34-12h0a.25.25,0,0,1-.25-.27q.1-3.09.23-6a.26.26,0,0,1,.52,0q-.12,2.93-.23,6A.26.26,0,0,1,72.18,334.22Zm.52-12h0a.26.26,0,0,1-.24-.28c.11-2.14.24-4.17.37-6a.26.26,0,0,1,.28-.24.27.27,0,0,1,.24.28c-.13,1.85-.26,3.87-.37,6A.27.27,0,0,1,72.7,322.18Zm.87-12h0a.25.25,0,0,1-.23-.28c.23-2.38.5-4.4.77-6a.26.26,0,0,1,.3-.21.26.26,0,0,1,.22.3c-.28,1.59-.54,3.59-.78,6A.25.25,0,0,1,73.57,310.15Zm2.08-11.86h-.06a.26.26,0,0,1-.19-.31c.49-1.9,1-3.85,1.66-5.81a.26.26,0,0,1,.32-.17.26.26,0,0,1,.17.33c-.61,1.95-1.16,3.89-1.64,5.78A.27.27,0,0,1,75.65,298.29Zm3.59-11.49-.09,0a.26.26,0,0,1-.15-.33c.68-1.85,1.41-3.74,2.19-5.62a.27.27,0,0,1,.34-.15.27.27,0,0,1,.14.35c-.77,1.87-1.51,3.75-2.18,5.6A.27.27,0,0,1,79.24,286.8Z" transform="translate(-15.61 -14.01)" fill="#1e2b5f"/><path d="M71.63,427.64a.26.26,0,0,1-.26-.26s0-1.11,0-3.12a.26.26,0,0,1,.26-.26.27.27,0,0,1,.26.25c0,2,0,3.13,0,3.13a.26.26,0,0,1-.26.26Z" transform="translate(-15.61 -14.01)" fill="#1e2b5f"/><path d="M121.31,202.78a.24.24,0,0,1-.18-.07.27.27,0,0,1,0-.37c.14-.14,3.39-3.4,7.5-3.4h.06a.27.27,0,0,1,0,.53h0c-3.89,0-7.09,3.2-7.12,3.24A.28.28,0,0,1,121.31,202.78Z" transform="translate(-15.61 -14.01)" fill="#1e2b5f"/><path d="M121.73,205.16a.27.27,0,0,1-.18-.08.27.27,0,0,1,0-.37c.13-.14,3.39-3.39,7.5-3.39h0a.26.26,0,0,1,.26.26.26.26,0,0,1-.26.26h0c-3.89,0-7.1,3.21-7.13,3.24A.27.27,0,0,1,121.73,205.16Z" transform="translate(-15.61 -14.01)" fill="#1e2b5f"/><path d="M131.9,179.52a3.44,3.44,0,1,1-2.64-4.09A3.44,3.44,0,0,1,131.9,179.52Z" transform="translate(-15.61 -14.01)" fill="#f39d75"/><path d="M127.84,180.82a1.45,1.45,0,0,1-1.1-1.35,1.35,1.35,0,0,1,.87-1.43,1.62,1.62,0,0,1,1.74.41,1.51,1.51,0,0,0-.49-.92,2.12,2.12,0,0,0-1.46-.42.1.1,0,0,1-.12-.09.11.11,0,0,1,.09-.13,2.35,2.35,0,0,1,1.63.47,1.88,1.88,0,0,1,.6,1.42v.4l-.21-.33a1.48,1.48,0,0,0-1.71-.61,1.16,1.16,0,0,0-.73,1.22,1.21,1.21,0,0,0,1,1.15.11.11,0,0,1,0,.21Z" transform="translate(-15.61 -14.01)" fill="#ed7163"/><path d="M149.07,167.59s3.94,6.69-.89,22.21V173.39Z" transform="translate(-15.61 -14.01)" fill="#ffd19d"/><path d="M611.2,440.45V270.8a3.19,3.19,0,0,0-3.19-3.19H550.88c-12.38,0-11.7,9.57-6.94,18.5s3.71,28.06-16.49,28.06S499.59,300.78,506,288s3.83-20.41-10.84-20.41h-57a3.19,3.19,0,0,0-3.19,3.19v59.06c0,11.48-8.68,11.09-15.69,5.35s-30.62-8.92-31.25,18.5,28,21.15,37.53,13.5,9.66,5.11,9.66,15.2v58a3.19,3.19,0,0,0,3.19,3.19H608A3.19,3.19,0,0,0,611.2,440.45Z" transform="translate(-15.61 -14.01)" fill="#2da981"/><path d="M468.17,389.81a.38.38,0,0,1-.29-.14l-9.65-11.81a.37.37,0,0,1,.58-.47l9.65,11.82a.37.37,0,0,1-.06.52A.38.38,0,0,1,468.17,389.81Z" transform="translate(-15.61 -14.01)" fill="#1e2b5f"/><path d="M472.89,389.81a.37.37,0,0,1-.29-.14l-8.84-10.82a.39.39,0,0,1,.06-.53.38.38,0,0,1,.52.06l8.83,10.83a.37.37,0,0,1-.05.52A.4.4,0,0,1,472.89,389.81Z" transform="translate(-15.61 -14.01)" fill="#1e2b5f"/><path d="M578.67,324.25a.37.37,0,0,1-.29-.14l-9.65-11.81a.37.37,0,1,1,.57-.47L579,323.64a.37.37,0,0,1-.05.52A.35.35,0,0,1,578.67,324.25Z" transform="translate(-15.61 -14.01)" fill="#1e2b5f"/><path d="M583.38,324.25a.38.38,0,0,1-.29-.14l-8.83-10.83a.37.37,0,1,1,.57-.47l8.84,10.83a.38.38,0,0,1-.29.61Z" transform="translate(-15.61 -14.01)" fill="#1e2b5f"/><path d="M560.57,418.58a.38.38,0,0,1-.29-.14l-9.65-11.81a.37.37,0,1,1,.57-.47L560.86,418a.39.39,0,0,1-.06.53A.4.4,0,0,1,560.57,418.58Z" transform="translate(-15.61 -14.01)" fill="#1e2b5f"/><path d="M565.28,418.58a.37.37,0,0,1-.28-.14l-8.84-10.83a.37.37,0,1,1,.58-.46L565.57,418a.38.38,0,0,1-.05.53A.41.41,0,0,1,565.28,418.58Z" transform="translate(-15.61 -14.01)" fill="#1e2b5f"/><path d="M543.39,306.09a15.58,15.58,0,0,1-10.65,7.18.38.38,0,0,0-.3.43h0a.39.39,0,0,0,.45.31A16.28,16.28,0,0,0,544,306.47c3.89-6.48,3.06-15.24.23-20.54-3.21-6-4-11.26-2.13-14.36,1.43-2.38,4.37-3.58,8.74-3.58h56.76a3.19,3.19,0,0,1,3.19,3.19V420.46a.37.37,0,0,0,.4.37h0a.37.37,0,0,0,.35-.37V271.18a3.94,3.94,0,0,0-3.94-3.95H550.88c-4.66,0-7.81,1.33-9.39,4-2.73,4.55.16,11.41,2.12,15.09C546.34,291.4,547.14,299.84,543.39,306.09Z" transform="translate(-15.61 -14.01)" fill="#1e2b5f"/><path d="M430.43,365.25c4.37,0,4.37,9.92,4.37,17.16v4.43a.38.38,0,0,0,.31.37h0a.38.38,0,0,0,.45-.37v-4.43c0-8,0-17.91-5.13-17.91-1.43,0-3.12.79-5.15,2.41-3.89,3.12-11.7,6.47-19.63,6.47-5.31,0-9.67-1.59-12.6-4.59-3.27-3.34-4.84-8.41-4.69-15.07.46-19.88,12.93-22,18.26-22s10.06,1.92,12.38,3.82c3.11,2.54,6.5,4,9.3,4,4.45,0,7-3.52,7-9.65V271.18a3.19,3.19,0,0,1,3.19-3.19h17.1a.39.39,0,0,0,.38-.39h0a.38.38,0,0,0-.38-.37h-17.1a3.94,3.94,0,0,0-3.94,3.95v58.68c0,5.74-2.22,8.9-6.25,8.9-2.63,0-5.85-1.4-8.83-3.84-2.42-2-7.34-4-12.85-4s-18.53,2.21-19,22.76c-.16,6.87,1.49,12.13,4.9,15.62,3.08,3.15,7.62,4.81,13.14,4.81,8.12,0,16.11-3.43,20.1-6.63C427.62,366,429.19,365.25,430.43,365.25Z" transform="translate(-15.61 -14.01)" fill="#1e2b5f"/><path d="M646.76,165l.06,13.81s-.17,4.67,3.91,5.23l-1,8.55c-.28,2.32,1.39,2.21,3.62,2.91a13,13,0,0,0,3.86.58,7.8,7.8,0,0,0,7.56-5.29c.38-1.75-.82-10.11-.82-10.11l.12-4.11-.6-15.93Z" transform="translate(-15.61 -14.01)" fill="#f39d75"/><path d="M658.06,171.88l.14,0a.21.21,0,0,0,0-.28s-2.71-2.75-5.15-.77a.19.19,0,0,0,0,.27.18.18,0,0,0,.27,0c2.16-1.75,4.53.64,4.63.74A.2.2,0,0,0,658.06,171.88Z" transform="translate(-15.61 -14.01)" fill="#1e2b5f"/><path d="M650,170.75a.16.16,0,0,0,.14-.07.19.19,0,0,0,0-.27c-.08-.07-1.94-1.65-3.11-.64a.2.2,0,0,0,.26.3c.91-.79,2.58.62,2.6.63Z" transform="translate(-15.61 -14.01)" fill="#1e2b5f"/><path d="M654.13,172.69a.58.58,0,0,0,.59.58.59.59,0,0,0,0-1.17A.58.58,0,0,0,654.13,172.69Z" transform="translate(-15.61 -14.01)" fill="#1e2b5f"/><path d="M647.92,172.13a.6.6,0,0,0,.59.58.59.59,0,0,0,0-1.17A.6.6,0,0,0,647.92,172.13Z" transform="translate(-15.61 -14.01)" fill="#1e2b5f"/><path d="M662.93,161.44l-3.24,4.63s-9.85,3.87-14.93-.64-3.53-6.71-2-9c.72-1.13,4.2-3.42,8.49-1.54,2.34,1,4-2.08,6.78-.53s6,4.22,5.6,5.29S662.93,161.44,662.93,161.44Z" transform="translate(-15.61 -14.01)" fill="#1e2b5f"/><path d="M662.72,159.5s4.49-.24,5.77,4.08-.41,6.59-.45,7.88.88,10-5.22,9.35l-1.71-14.34,2.09-5.73Z" transform="translate(-15.61 -14.01)" fill="#1e2b5f"/><path d="M659,172.46a3.5,3.5,0,1,0,3.49-3.51A3.5,3.5,0,0,0,659,172.46Z" transform="translate(-15.61 -14.01)" fill="#f39d75"/><path d="M662.72,174.59a1.45,1.45,0,0,0,1.37-1.1,1.4,1.4,0,0,0-.56-1.6,1.66,1.66,0,0,0-1.84.08,1.63,1.63,0,0,1,.7-.87A2.17,2.17,0,0,1,664,171a.11.11,0,0,0,.12-.07.09.09,0,0,0-.06-.12,2.4,2.4,0,0,0-1.71.12,1.93,1.93,0,0,0-.89,1.28l-.08.34.25-.25a1.52,1.52,0,0,1,1.85-.24,1.2,1.2,0,0,1,.47,1.38,1.27,1.27,0,0,1-1.18,1h0a.1.1,0,0,0-.1.09.1.1,0,0,0,.1.1Z" transform="translate(-15.61 -14.01)" fill="#ed7163"/><path d="M660.19,180.07s-.24,7.81-10,8.6l.54-4.6S657.07,185.32,660.19,180.07Z" transform="translate(-15.61 -14.01)" fill="#ed7163"/><path d="M646.13,176.64s-1.23,9.36,5,9.67c8.89.43,9.73-4.64,10.24-8.79l0-8.57-.29-2.48A4.38,4.38,0,0,0,660,169c-.17,2-.6,7.59-1.12,7.83C658.18,177.2,647.51,175.74,646.13,176.64Z" transform="translate(-15.61 -14.01)" fill="#1e2b5f"/><path d="M652.09,176.63l.09-.06a.1.1,0,0,0-.06-.13l-2-.63.59-4.59a.09.09,0,0,0-.08-.11.09.09,0,0,0-.11.08l-.62,4.75,2.11.69Z" transform="translate(-15.61 -14.01)" fill="#ed7163"/><path d="M653.61,178.52l-3.85-.08s.48,1.56,1.89,1.59A2.26,2.26,0,0,0,653.61,178.52Z" transform="translate(-15.61 -14.01)" fill="#f5fff5"/><polygon points="649.02 424.61 666.48 424.94 666.84 409.85 649.46 407.75 649.02 424.61" fill="#f39d75"/><path d="M677.3,444.08l-22.52,0a3.19,3.19,0,0,1-.49-.1c-2.12-.64-1.42-1.95-1.42-1.95l10.78-6.52.21-.95c.33-1.54,2.27-2.08,3.72-1l3.77,2.69s9.55,1.42,10.88-1.24l-.09,6.9S682.87,444.05,677.3,444.08Z" transform="translate(-15.61 -14.01)" fill="#fc716e"/><polygon points="617.98 424.61 635.44 424.94 635.8 409.85 618.42 407.75 617.98 424.61" fill="#f39d75"/><path d="M646.26,444.08l-22.51,0a3,3,0,0,1-.49-.1c-2.12-.64-1.43-1.95-1.43-1.95l10.79-6.52.21-.95c.33-1.54,2.27-2.08,3.72-1l3.76,2.69s9.56,1.42,10.88-1.24l-.09,6.9S651.83,444.05,646.26,444.08Z" transform="translate(-15.61 -14.01)" fill="#fc716e"/><path d="M663.87,304.28s-3.13,78.86-10,124.37a45.51,45.51,0,0,1-21.66-2.88l-1.31-125.4,1.3-7.45Z" transform="translate(-15.61 -14.01)" fill="#1e2b5f"/><path d="M649.25,429.29A52.57,52.57,0,0,1,632.11,426a.26.26,0,0,1-.14-.34.27.27,0,0,1,.34-.14c.11.05,11.34,4.48,21.41,2.95.35-2.73,4.19-33.08,4.55-40a.25.25,0,0,1,.27-.25.27.27,0,0,1,.25.28c-.38,7.27-4.54,39.94-4.58,40.27l0,.2-.2,0A30.17,30.17,0,0,1,649.25,429.29Z" transform="translate(-15.61 -14.01)" fill="#1e2b5f"/><path d="M687.19,305s1,78.92-3.55,124.72A45.49,45.49,0,0,1,661.87,428l-9.61-110.5-6-29.88Z" transform="translate(-15.61 -14.01)" fill="#1e3877"/><path d="M677.62,430.6a64.37,64.37,0,0,1-15.82-2.38.26.26,0,0,1,.14-.5c.13,0,12.72,3.73,21.46,1.8.25-4.62,4.75-87,3.58-117.32a.26.26,0,0,1,.25-.27c.17,0,.27.1.27.25,1.2,31.11-3.55,116.7-3.6,117.56v.2l-.19,0A27.26,27.26,0,0,1,677.62,430.6Z" transform="translate(-15.61 -14.01)" fill="#1e2b5f"/><path d="M676.16,430.58h0a.27.27,0,0,1-.25-.27c0-.8,2.29-80,1.29-89.83a.26.26,0,0,1,.52-.05c1,9.87-1.27,89.09-1.29,89.89A.26.26,0,0,1,676.16,430.58Z" transform="translate(-15.61 -14.01)" fill="#1e2b5f"/><path d="M647.38,429.13h0a.27.27,0,0,1-.25-.28L650.93,343a.25.25,0,0,1,.27-.25.25.25,0,0,1,.25.27l-3.81,85.86A.26.26,0,0,1,647.38,429.13Z" transform="translate(-15.61 -14.01)" fill="#1e2b5f"/><path d="M623.71,228.94s24-39.36,34.12-42,18.72,7.56,24.54,34.58c6.23,28.91,7.1,84.13,7.1,84.13s-38.13,13.89-61.13,0l.46-32L644.7,255S626.8,238.82,623.71,228.94Z" transform="translate(-15.61 -14.01)" fill="#f5fff5"/><path d="M662.92,234a.25.25,0,0,1-.22-.12.26.26,0,0,1,.08-.36l6.18-3.86a.26.26,0,1,1,.27.44L663.05,234Z" transform="translate(-15.61 -14.01)" fill="#1e2b5f"/><path d="M649.18,250.66a.27.27,0,0,1-.17-.06c-12.4-10.72-21-28.55-21.08-28.73a.26.26,0,0,1,.13-.34.24.24,0,0,1,.34.12c.09.18,8.63,17.91,21,28.56a.25.25,0,0,1,0,.36A.27.27,0,0,1,649.18,250.66Z" transform="translate(-15.61 -14.01)" fill="#1e2b5f"/><path d="M653.85,312.5a61.82,61.82,0,0,1-11.61-1c-9.7-1.84-13.9-5.46-14.07-5.62a.26.26,0,0,1,0-.37.26.26,0,0,1,.36,0s4.3,3.7,13.88,5.51c8.83,1.67,24.12,2.06,46.82-5.5-.08-2.3-.77-24.16-.94-27.42a.27.27,0,0,1,.25-.28.27.27,0,0,1,.27.25c.18,3.43.93,27.39.94,27.63v.19l-.19.06C674.53,310.94,662.72,312.5,653.85,312.5Z" transform="translate(-15.61 -14.01)" fill="#1e2b5f"/><path d="M583.21,257.63l25.2.45,17.32-25.36,5.54,8.37,9,9.91,5.64,4.49s-17.64,26.08-27.4,29.19-48.07-11.89-48.07-11.89Z" transform="translate(-15.61 -14.01)" fill="#f2926f"/><path d="M648.5,257.47l-.23-.13c-16-9.67-24.71-28.1-24.8-28.29l-.05-.12.07-.12c.92-1.55,22.72-38.1,34.25-42.1,11.69-4.05,19.1,15.18,19.18,15.37a.26.26,0,0,1-.16.34.26.26,0,0,1-.33-.15c-.07-.19-7.31-19-18.52-15.07-11,3.83-32.49,39.4-33.9,41.76.78,1.62,9.27,18.59,24.31,27.8l18.55-30.27a.25.25,0,0,1,.35-.08.25.25,0,0,1,.09.36Z" transform="translate(-15.61 -14.01)" fill="#1e2b5f"/><path d="M560.36,261.79c.31-.11,7.2-2.82,7.7-2.89,3.19,4,.34,11.22,3.86,15.62-3.09-.29-5.26-.54-6.12-.68l-4.2,4.72-.79,1.34a1.76,1.76,0,0,1-2.14.55,1.22,1.22,0,0,1-.78-1.74l-.34.55a1.74,1.74,0,0,1-2.14.55,1.23,1.23,0,0,1-.78-1.74,1.74,1.74,0,0,1-2.14.55,1.24,1.24,0,0,1-.78-1.74l.33-.56a1.76,1.76,0,0,1-2.14.55l-.13-.06h0l-.15-.08c-.73-.44-1-.89-.91-1.29.08-.83,2.62-4.78,3.77-6.66A15.41,15.41,0,0,1,560.36,261.79Z" transform="translate(-15.61 -14.01)" fill="#f2926f"/><path d="M551.83,276.8a.21.21,0,0,1-.15-.05.26.26,0,0,1,0-.37l6-7.74a.26.26,0,0,1,.42.32l-6,7.74A.25.25,0,0,1,551.83,276.8Z" transform="translate(-15.61 -14.01)" fill="#ed7163"/><path d="M554.69,278.29a.3.3,0,0,1-.16-.05.27.27,0,0,1,0-.37l5.45-7a.26.26,0,0,1,.37-.05.27.27,0,0,1,0,.37l-5.45,7A.23.23,0,0,1,554.69,278.29Z" transform="translate(-15.61 -14.01)" fill="#ed7163"/><path d="M589.13,257.74c-24.85-1.24-28.68,4.15-30.75,5.1-2.9,1.33,4.92,13.43,4.92,13.43a97.77,97.77,0,0,1,22.16,1.91Z" transform="translate(-15.61 -14.01)" fill="#f2926f"/><path d="M558,279.11a.25.25,0,0,1-.16-.06.26.26,0,0,1,0-.36L562.2,273a.27.27,0,0,1,.37,0,.26.26,0,0,1,0,.36L558.23,279A.26.26,0,0,1,558,279.11Z" transform="translate(-15.61 -14.01)" fill="#ed7163"/><path d="M654.07,195.65a.26.26,0,0,1-.18-.07.27.27,0,0,1,0-.37c.13-.14,3.39-3.4,7.5-3.4h.05a.26.26,0,0,1,.26.26.25.25,0,0,1-.26.26h-.05c-3.9,0-7.1,3.21-7.13,3.25A.26.26,0,0,1,654.07,195.65Z" transform="translate(-15.61 -14.01)" fill="#1e2b5f"/><path d="M654.5,198a.27.27,0,0,1-.19-.08.27.27,0,0,1,0-.37c.14-.14,3.39-3.39,7.51-3.39h0a.26.26,0,0,1,.26.26.26.26,0,0,1-.26.26h0c-3.9,0-7.11,3.21-7.14,3.24A.27.27,0,0,1,654.5,198Z" transform="translate(-15.61 -14.01)" fill="#1e2b5f"/><path d="M280.56,315.43h0a.37.37,0,0,0,.39.37c7.63-.33,13.64-4,17-10.41,4.1-7.77,3.58-18.15-1.27-25.24-2.07-3-2.62-5.35-1.68-7.12,2.46-4.66,14.78-5,29.43-5h46a2.68,2.68,0,0,1,2.69,2.69V300a.38.38,0,0,0,.42.37h0a.38.38,0,0,0,.34-.37V270.68a3.46,3.46,0,0,0-3.45-3.45h-46c-14.9,0-27.44.41-30.1,5.45-1.08,2-.51,4.63,1.73,7.9,4.62,6.76,5.14,17,1.23,24.46-3.25,6.16-9,9.68-16.39,10A.37.37,0,0,0,280.56,315.43Z" transform="translate(-15.61 -14.01)" fill="#1e2b5f"/><path d="M365.81,369.19A27,27,0,0,0,353,372.52a16.13,16.13,0,0,1-7.76,1.71c-.37,0-.8,0-1.29,0a.38.38,0,0,0-.4.36h0a.39.39,0,0,0,.36.39c.51,0,.95,0,1.33,0a16.82,16.82,0,0,0,8.14-1.81A26.15,26.15,0,0,1,365.81,370c3.56,0,7.37.93,7.37,3.53v67.09a2.69,2.69,0,0,1-2.69,2.69h-168a.37.37,0,0,0-.37.38h0a.37.37,0,0,0,.37.37h168a3.45,3.45,0,0,0,3.45-3.44V373.48C373.94,370.84,370.82,369.19,365.81,369.19Z" transform="translate(-15.61 -14.01)" fill="#1e2b5f"/></svg>